<?xml version="1.0" standalone="no"?>
<!DOCTYPE svg PUBLIC "-//W3C//DTD SVG 20010904//EN"
 "http://www.w3.org/TR/2001/REC-SVG-20010904/DTD/svg10.dtd">
<svg version="1.0" xmlns="http://www.w3.org/2000/svg"
 width="1098.000000pt" height="1098.000000pt" viewBox="0 0 1098.000000 1098.000000"
 preserveAspectRatio="xMidYMid meet">
<metadata>
Created by potrace 1.11, written by Peter Selinger 2001-2013
</metadata>
<g transform="translate(0.000000,1098.000000) scale(0.100000,-0.100000)"
fill="#000000" stroke="none">
<path d="M5060 10959 c-1789 -141 -3397 -1151 -4307 -2704 -418 -714 -669
-1521 -733 -2354 -13 -174 -13 -648 0 -822 93 -1214 577 -2348 1390 -3253 948
-1055 2254 -1698 3669 -1806 174 -13 648 -13 822 0 1415 108 2721 751 3669
1806 812 904 1297 2040 1390 3253 13 174 13 648 0 822 -93 1213 -578 2349
-1390 3253 -948 1055 -2254 1698 -3669 1806 -156 12 -687 11 -841 -1z m522
-1308 l33 -29 0 -499 0 -498 -102 -3 -103 -3 0 500 0 499 29 31 c40 43 97 44
143 2z m293 -1122 c957 -71 1925 -402 2775 -948 748 -481 1371 -1115 1670
-1702 33 -65 60 -119 60 -121 0 -2 -53 2 -117 8 -853 87 -1560 -3 -2082 -265
-57 -29 -105 -50 -108 -48 -2 3 -24 85 -48 183 -235 960 -643 1721 -1210 2254
-237 224 -530 412 -810 523 -117 46 -307 103 -370 111 -49 6 -48 6 30 -24 290
-110 552 -286 805 -540 553 -554 971 -1433 1135 -2387 32 -183 32 -195 3 -188
-62 14 -530 87 -733 114 -549 73 -871 96 -1385 96 -514 0 -836 -23 -1385 -96
-205 -27 -672 -100 -734 -114 -24 -6 -24 -6 -17 57 4 35 18 119 31 188 131
698 377 1322 724 1838 345 513 747 856 1211 1034 l75 29 -50 -7 c-63 -8 -253
-65 -370 -111 -946 -373 -1684 -1392 -2024 -2792 -22 -90 -42 -165 -44 -168
-3 -2 -51 19 -108 48 -522 262 -1229 352 -2081 265 -65 -6 -118 -10 -118 -8 0
14 132 258 184 340 517 815 1528 1602 2608 2030 562 222 1126 356 1688 400
150 12 642 13 795 1z m-1068 -3525 c49 -37 603 -1180 786 -1624 72 -172 68
-165 78 -148 5 9 39 90 75 180 37 90 108 251 159 358 343 726 570 1198 584
1214 32 38 73 46 233 46 222 -1 268 -14 268 -77 0 -13 -245 -513 -545 -1113
l-545 -1089 0 -696 c0 -671 -1 -696 -19 -714 -56 -56 -365 -60 -448 -5 l-23
14 0 701 0 701 -541 1078 c-351 700 -542 1091 -546 1118 -5 38 -3 42 28 62 32
20 46 21 231 18 182 -3 199 -5 225 -24z"/>
</g>
</svg>
